# xmcd
#
# Track frame offsets:
#	150
#	12622
#	36860
#	47160
#	58267
#	75582
#	91297
#	119547
#	132490
#	142747
#	154980
#	164692
#	186402
#	199225
#
# Disc length: 2808 seconds
#
# Revision: 1
# Processed by: cddbd v1.5.1PL0 Copyright (c) Steve Scherf et al.
# Submitted via: audiograbber 1.83.01
#
DISCID=ce0af60e
DTITLE=Various Artist - Rare and Well Done
DYEAR=1996
DGENRE=Local Music
TTITLE0=BeatlesS - Wet Willie's Whistling Rumpus
TTITLE1=Bicycle Face - French Girl
TTITLE2=Chew Toy - Clown Face
TTITLE3=Dillon Fence - Walking Along the Haw
TTITLE4=Dish - Fourth Man
TTITLE5=Finger - Circuit Rider
TTITLE6=Geezer Lake - Skin
TTITLE7=Motocaster - Monster Wig
TTITLE8=Shiny Beast - Glory Hole
TTITLE9=Silica-gel - Prurient Chatter
TTITLE10=Snatches of Pink - Seven Winds
TTITLE11=Soccer - Had Enough Lounge
TTITLE12=Trucker - Stop
TTITLE13=What Peggy Wants - All Used Up
EXTD=
EXTT0=
EXTT1=
EXTT2=
EXTT3=
EXTT4=
EXTT5=
EXTT6=
EXTT7=
EXTT8=
EXTT9=
EXTT10=
EXTT11=
EXTT12=
EXTT13=
PLAYORDER=
